# xmcd
#
# Track frame offsets:
#	150
#	14792
#	29956
#	47381
#	61630
#	73295
#	88070
#	109453
#	119634
#	133611
#	149927
#	171236
#	190895
#	210727
#	226675
#	241093
#	261406
#	279359
#	294734
#	309101
#	321498
#	336128
#
# Disc length: 4717 seconds
#
# Revision: 1
# Processed by: cddbd v1.5.2PL0 Copyright (c) Steve Scherf et al.
# Submitted via: audiograbber 1.83.01
#
DISCID=61126b16
DTITLE=Edwin Morris - Let's Make The World A Better Place
DYEAR=1900
DGENRE=
TTITLE0=Sunrise Songs
TTITLE1=Thats What Friends Are For
TTITLE2=The Way That It Was
TTITLE3=On The Bridge
TTITLE4=Just One Of Those Days
TTITLE5=Let's Make The World a Better Place (Smiling Face)
TTITLE6=In The End We Win
TTITLE7=My Sweetheart
TTITLE8=Good Old Days (Sentimental Me)
TTITLE9=What Can You Do
TTITLE10=Past Present And Future
TTITLE11=Once Upon A Time
TTITLE12=Common Ground
TTITLE13=Simple Life
TTITLE14=Old Fashioned Way
TTITLE15=Peace -Maker
TTITLE16=Golden Path
TTITLE17=Seldom Blue
TTITLE18=Have You Ever Wept
TTITLE19=Time Travellers (When Our Time Is Up)
TTITLE20=We Will Survive
TTITLE21=Little Honest Land
EXTD=
EXTT0=
EXTT1=
EXTT2=
EXTT3=
EXTT4=
EXTT5=
EXTT6=
EXTT7=
EXTT8=
EXTT9=
EXTT10=
EXTT11=
EXTT12=
EXTT13=
EXTT14=
EXTT15=
EXTT16=
EXTT17=
EXTT18=
EXTT19=
EXTT20=
EXTT21=
PLAYORDER=
